<?xml version="1.0" encoding="iso-8859-1"?>
<!-- Uploaded to: SVG Repo, www.svgrepo.com, Generator: SVG Repo Mixer Tools -->
<!DOCTYPE svg PUBLIC "-//W3C//DTD SVG 1.1//EN" "http://www.w3.org/Graphics/SVG/1.1/DTD/svg11.dtd">
<svg fill="#000000" version="1.1" id="Capa_1" xmlns="http://www.w3.org/2000/svg" xmlns:xlink="http://www.w3.org/1999/xlink" 
	 width="800px" height="800px" viewBox="0 0 540.588 540.588"
	 xml:space="preserve">
<g>
	<g>
		<path d="M383.906,0H156.682C136.457,0,120,16.457,120,36.682v467.215c0,20.225,16.457,36.691,36.682,36.691h227.224
			c20.225,0,36.682-16.467,36.682-36.691V36.682C420.588,16.457,404.131,0,383.906,0z M406.244,503.906
			c0,12.324-10.012,22.348-22.338,22.348H156.682c-12.307,0-22.338-10.023-22.338-22.348V36.682
			c0-12.307,10.031-22.338,22.338-22.338h227.224c12.326,0,22.338,10.031,22.338,22.338V503.906L406.244,503.906z"/>
		<path d="M388.468,59.66H152.13c-1.979,0-3.586,1.606-3.586,3.586V473.41c0,1.98,1.606,3.586,3.586,3.586h236.337
			c1.979,0,3.586-1.605,3.586-3.586V63.246C392.054,61.267,390.447,59.66,388.468,59.66z M375.319,469.824H165.279
			c-5.279,0-9.562-4.283-9.562-9.562V76.395c0-5.278,4.284-9.562,9.562-9.562h210.041c5.278,0,9.562,4.284,9.562,9.562v383.867
			C384.882,465.541,380.598,469.824,375.319,469.824z"/>
		<path d="M250.127,37.81h40.344c1.979,0,3.586-1.606,3.586-3.586s-1.606-3.586-3.586-3.586h-40.344
			c-1.979,0-3.586,1.606-3.586,3.586S248.147,37.81,250.127,37.81z"/>
		<path d="M290.949,485.201h-41.311c-8.481,0-15.386,6.904-15.386,15.377v2.467c0,8.482,6.914,15.387,15.386,15.387h41.311
			c8.481,0,15.386-6.914,15.386-15.387v-2.467C306.345,492.096,299.431,485.201,290.949,485.201z M299.173,503.045
			c0,4.533-3.682,8.215-8.214,8.215h-41.311c-4.522,0-8.214-3.691-8.214-8.215v-2.467c0-4.523,3.7-8.205,8.214-8.205h41.311
			c4.542,0,8.214,3.691,8.214,8.205V503.045z"/>
		<path d="M243.825,292.555c1.405,0,2.82-0.631,3.768-1.836c1.625-2.074,1.271-5.088-0.812-6.713l-35.602-27.932
			c-4.15-3.261-3.796-8.004,0.803-10.595l34.186-19.288c2.305-1.301,3.117-4.208,1.816-6.512c-1.31-2.314-4.255-3.117-6.512-1.817
			l-48.759,27.492c-1.396,0.784-2.304,2.209-2.429,3.796c-0.115,1.597,0.564,3.146,1.817,4.131l48.759,38.25
			C241.75,292.221,242.782,292.555,243.825,292.555z"/>
		<path d="M332.087,245.479c4.6,2.591,4.963,7.344,0.803,10.604l-35.601,27.932c-2.085,1.625-2.438,4.639-0.812,6.713
			c0.946,1.205,2.352,1.836,3.768,1.836c1.032,0,2.075-0.334,2.954-1.014l48.76-38.25c1.262-0.985,1.932-2.534,1.816-4.131
			c-0.124-1.597-1.032-3.012-2.429-3.796l-48.759-27.492c-2.267-1.3-5.212-0.497-6.513,1.817c-1.3,2.305-0.487,5.211,1.827,6.512
			L332.087,245.479z"/>
		<path d="M259.899,322.352c0.307,0.057,0.622,0.086,0.918,0.086c2.238,0,4.246-1.596,4.686-3.883l22.711-118.335
			c0.497-2.591-1.204-5.097-3.786-5.604c-2.63-0.507-5.106,1.195-5.604,3.796l-22.711,118.336
			C255.615,319.35,257.317,321.854,259.899,322.352z"/>
	</g>
</g>
</svg>