<?xml version="1.0" encoding="iso-8859-1"?>
<!-- Uploaded to: SVG Repo, www.svgrepo.com, Generator: SVG Repo Mixer Tools -->
<svg fill="#000000" height="800px" width="800px" version="1.1" id="Layer_1" xmlns="http://www.w3.org/2000/svg" xmlns:xlink="http://www.w3.org/1999/xlink" 
	 viewBox="0 0 512 512" xml:space="preserve">
<g>
	<g>
		<g>
			<path d="M128.661,281.557C128.512,283.733,128,285.803,128,288c0,17.643,14.357,32,32,32s32-14.357,32-32s-14.357-32-32-32
				C144.555,256,131.648,266.987,128.661,281.557z"/>
			<path d="M299.328,281.557c-0.149,2.176-0.661,4.245-0.661,6.443c0,17.643,14.357,32,32,32c17.643,0,32-14.357,32-32
				s-14.357-32-32-32C315.221,256,302.315,266.987,299.328,281.557z"/>
			<path d="M490.667,0H21.333C9.536,0,0,9.557,0,21.333v469.333C0,502.443,9.536,512,21.333,512h469.333
				c11.797,0,21.333-9.557,21.333-21.333V21.333C512,9.557,502.464,0,490.667,0z M234.667,181.333
				c-29.803,0-56.725,12.352-76.096,32.149c0.491-0.021,0.939-0.149,1.429-0.149c41.173,0,74.667,33.493,74.667,74.667
				S201.173,362.667,160,362.667S85.333,329.173,85.333,288c0-82.347,67.008-149.333,149.333-149.333
				c11.797,0,21.333,9.557,21.333,21.333S246.464,181.333,234.667,181.333z M405.333,181.333c-29.803,0-56.725,12.352-76.096,32.149
				c0.491-0.021,0.939-0.149,1.429-0.149c41.173,0,74.667,33.493,74.667,74.667s-33.493,74.667-74.667,74.667S256,329.173,256,288
				c0-82.347,67.008-149.333,149.333-149.333c11.797,0,21.333,9.557,21.333,21.333S417.131,181.333,405.333,181.333z"/>
		</g>
	</g>
</g>
</svg>